PathFileType	4	(X/Y/Z)	/home/nbianco/projects/addbio/data/HamnerRunning2013/Processed/subject20//results/MarkerData/run400.trc
DataRate	CameraRate	NumFrames	NumMarkers	Units	OrigDataRate	OrigDataStartFrame	OrigNumFrames
119.99	119.99	10	42	m	119.99	116	232
Frame#	Time	C7			CLAV			LACR			LASI			LCAL			LFAradius			LFAsuperior			LFAulna			LLEL			LMEL			LMT5			LPSI			LTB1			LTB2			LTB3			LTH1			LTH2			LTH3			LTOE			LUA1			LUA2			LUA3			RACR			RASI			RCAL			RFAradius			RFAsuperior			RFAulna			RLEL			RMEL			RMT5			RPSI			RTB1			RTB2			RTB3			RTH1			RTH2			RTH3			RTOE			RUA1			RUA2			RUA3		
		X1	Y1	Z1	X2	Y2	Z2	X3	Y3	Z3	X4	Y4	Z4	X5	Y5	Z5	X6	Y6	Z6	X7	Y7	Z7	X8	Y8	Z8	X9	Y9	Z9	X10	Y10	Z10	X11	Y11	Z11	X12	Y12	Z12	X13	Y13	Z13	X14	Y14	Z14	X15	Y15	Z15	X16	Y16	Z16	X17	Y17	Z17	X18	Y18	Z18	X19	Y19	Z19	X20	Y20	Z20	X21	Y21	Z21	X22	Y22	Z22	X23	Y23	Z23	X24	Y24	Z24	X25	Y25	Z25	X26	Y26	Z26	X27	Y27	Z27	X28	Y28	Z28	X29	Y29	Z29	X30	Y30	Z30	X31	Y31	Z31	X32	Y32	Z32	X33	Y33	Z33	X34	Y34	Z34	X35	Y35	Z35	X36	Y36	Z36	X37	Y37	Z37	X38	Y38	Z38	X39	Y39	Z39	X40	Y40	Z40	X41	Y41	Z41	X42	Y42	Z42

117	1.05	0.680276	1.54142	-0.366959	0.807608	1.4536	-0.372617	0.678506	1.50286	-0.551495	0.73407	1.03947	-0.475564	0.830857	0.118801	-0.395282	0.694125	1.2464	-0.655769	0.557401	1.33726	-0.726679	0.666485	1.20142	-0.69373	0.493381	1.36535	-0.725249	0.446274	1.32308	-0.661006	1.02073	0.132499	-0.481231	0.570277	1.07031	-0.419633	0.939632	0.452653	-0.428283	0.901899	0.341619	-0.475792	0.927039	0.263355	-0.401941	0.736015	0.898955	-0.534464	0.835956	0.818315	-0.521948	0.823644	0.664152	-0.502399	1.04301	0.168379	-0.396839	0.623145	1.48183	-0.602858	0.547096	1.44575	-0.589323	0.568858	1.42855	-0.663061	0.755986	1.49191	-0.194687	0.71758	1.03455	-0.243736	0.0672732	0.515944	-0.344983	0.849778	1.25813	-0.254918	0.788344	1.23375	-0.102222	0.853904	1.19209	-0.243855	0.729055	1.22718	-0.0410738	0.650408	1.19875	-0.0813811	0.0167269	0.341505	-0.246483	0.568077	1.08044	-0.3314	0.38407	0.469324	-0.290426	0.303267	0.494861	-0.246971	0.204356	0.436994	-0.313461	0.621032	0.852875	-0.204226	0.631544	0.718859	-0.226222	0.510313	0.636139	-0.230202	0.0537751	0.298083	-0.325019	0.750988	1.38761	-0.123476	0.775107	1.32179	-0.123266	0.688713	1.30819	-0.0586511
118	1.05833	0.680152	1.53809	-0.369737	0.8072	1.44929	-0.373094	0.68088	1.49757	-0.554352	0.732742	1.03669	-0.476835	0.829676	0.10978	-0.395477	0.702829	1.24505	-0.659418	0.564357	1.33116	-0.731846	0.676816	1.19927	-0.697709	0.499231	1.35755	-0.730432	0.452231	1.31314	-0.667269	1.01978	0.127519	-0.481768	0.568296	1.06433	-0.417809	0.933452	0.445851	-0.427756	0.896896	0.334742	-0.475554	0.923406	0.256609	-0.40179	0.73405	0.89409	-0.536519	0.831101	0.810113	-0.523638	0.816699	0.65713	-0.501918	1.04102	0.163864	-0.396643	0.625908	1.47563	-0.606531	0.549787	1.438	-0.593723	0.572617	1.42145	-0.666862	0.754727	1.48925	-0.196096	0.717955	1.03212	-0.243542	0.0774273	0.542141	-0.343174	0.846373	1.24725	-0.254285	0.782027	1.22825	-0.101839	0.846908	1.18133	-0.243192	0.722015	1.22509	-0.0413124	0.642574	1.19934	-0.0817282	0.0157231	0.371659	-0.244123	0.567517	1.07491	-0.329708	0.389678	0.469765	-0.290786	0.311432	0.500401	-0.246279	0.207961	0.45274	-0.313397	0.626685	0.847779	-0.204241	0.639627	0.71468	-0.226702	0.521035	0.62861	-0.228699	0.0488405	0.32594	-0.32387	0.747709	1.38582	-0.124237	0.770795	1.31945	-0.123228	0.683946	1.30757	-0.0594068
119	1.06667	0.679952	1.53402	-0.372541	0.80674	1.44418	-0.373405	0.683296	1.49133	-0.557169	0.731266	1.03318	-0.478234	0.824962	0.101797	-0.396058	0.711931	1.243	-0.663	0.571874	1.32406	-0.737426	0.687765	1.19646	-0.701621	0.505676	1.34856	-0.736121	0.458818	1.30205	-0.674057	1.01538	0.120072	-0.481628	0.566286	1.0577	-0.415891	0.925905	0.438815	-0.427007	0.89053	0.327868	-0.475614	0.917363	0.249541	-0.401796	0.731683	0.888443	-0.537953	0.825924	0.801939	-0.524322	0.810928	0.650568	-0.501564	1.03615	0.15711	-0.396231	0.628848	1.46836	-0.610523	0.552742	1.42938	-0.59864	0.576829	1.41316	-0.671115	0.753031	1.48576	-0.197425	0.71869	1.02888	-0.243273	0.0907775	0.566467	-0.341358	0.842872	1.23506	-0.252689	0.775128	1.22191	-0.100975	0.839591	1.16942	-0.241147	0.714331	1.22242	-0.0414436	0.634249	1.19928	-0.0821456	0.018513	0.400513	-0.241714	0.566426	1.06834	-0.327778	0.396549	0.470197	-0.291268	0.320943	0.505238	-0.245338	0.214232	0.467839	-0.313417	0.63225	0.842211	-0.204452	0.648016	0.709816	-0.22714	0.532108	0.620674	-0.227044	0.047619	0.352873	-0.322191	0.744091	1.38313	-0.12504	0.765995	1.316	-0.123416	0.678769	1.3062	-0.0601917
120	1.075	0.67976	1.5292	-0.375264	0.806314	1.43835	-0.373594	0.685616	1.48423	-0.559873	0.729784	1.02899	-0.479792	0.816514	0.0957048	-0.396823	0.721484	1.24042	-0.666524	0.579889	1.31613	-0.743213	0.699301	1.19306	-0.705426	0.512694	1.33846	-0.742228	0.465968	1.28993	-0.681254	1.0071	0.1095	-0.480574	0.564378	1.05056	-0.413958	0.917089	0.431195	-0.426335	0.882796	0.320449	-0.475876	0.909223	0.241669	-0.402045	0.728852	0.882085	-0.53835	0.820856	0.794199	-0.523994	0.805594	0.643999	-0.501331	1.02828	0.14712	-0.39549	0.631893	1.4601	-0.614749	0.555931	1.41986	-0.604012	0.581496	1.40379	-0.675801	0.751012	1.48147	-0.198676	0.719541	1.02475	-0.24328	0.106901	0.588506	-0.339665	0.83913	1.22165	-0.250209	0.76761	1.21482	-0.0997195	0.831916	1.15643	-0.237732	0.706045	1.21924	-0.0414581	0.625563	1.1986	-0.0827101	0.0248635	0.427478	-0.239304	0.564716	1.06098	-0.325748	0.404761	0.470521	-0.291767	0.331732	0.509359	-0.244138	0.222982	0.48172	-0.313204	0.637664	0.836125	-0.204798	0.656624	0.704181	-0.227658	0.543343	0.612374	-0.225322	0.0498803	0.378279	-0.320083	0.740079	1.37956	-0.12589	0.760646	1.31152	-0.123861	0.673107	1.30414	-0.0610656
121	1.08333	0.679557	1.52352	-0.377777	0.805986	1.43188	-0.373658	0.687778	1.47638	-0.562404	0.728379	1.02404	-0.481567	0.803506	0.0923313	-0.397441	0.731474	1.23746	-0.669942	0.588349	1.30753	-0.748967	0.711412	1.18921	-0.709082	0.520266	1.32736	-0.748599	0.473643	1.27684	-0.688692	0.994173	0.09623	-0.47867	0.562611	1.04299	-0.412138	0.907472	0.422599	-0.425926	0.873514	0.311993	-0.475905	0.898919	0.232672	-0.402296	0.725727	0.875188	-0.537668	0.816275	0.787145	-0.52264	0.799938	0.636995	-0.501142	1.01658	0.133485	-0.394104	0.635024	1.45091	-0.619098	0.559267	1.40941	-0.609769	0.586614	1.39345	-0.680815	0.748796	1.47645	-0.199856	0.720328	1.01979	-0.243638	0.125374	0.608029	-0.338181	0.834961	1.20706	-0.246938	0.759469	1.20707	-0.0981333	0.823793	1.14247	-0.23314	0.697198	1.21566	-0.0413499	0.616609	1.19741	-0.083471	0.0345627	0.452122	-0.236978	0.56266	1.05302	-0.323794	0.414291	0.470306	-0.291743	0.343807	0.512675	-0.242633	0.233992	0.493909	-0.312491	0.642925	0.829481	-0.205136	0.665251	0.697844	-0.228034	0.554498	0.603772	-0.223584	0.0555571	0.401701	-0.317799	0.735638	1.37516	-0.126809	0.754707	1.30618	-0.124529	0.666902	1.30148	-0.062082
122	1.09167	0.679232	1.51684	-0.379988	0.805793	1.42483	-0.373594	0.689777	1.46796	-0.564703	0.726984	1.01819	-0.483508	0.784967	0.0917851	-0.397533	0.741811	1.23415	-0.673113	0.597241	1.29837	-0.754502	0.724093	1.18501	-0.712525	0.528389	1.31542	-0.755025	0.481939	1.26281	-0.696198	0.975874	0.0822204	-0.476263	0.560868	1.03501	-0.410602	0.897681	0.412903	-0.425678	0.862389	0.302509	-0.475146	0.885866	0.2228	-0.401943	0.722527	0.867949	-0.536279	0.812309	0.780664	-0.520318	0.793862	0.629506	-0.501054	0.999894	0.117358	-0.391784	0.638294	1.44087	-0.623434	0.562677	1.3981	-0.615838	0.592168	1.38227	-0.685984	0.74649	1.4708	-0.200964	0.72101	1.01405	-0.244204	0.145848	0.624934	-0.336892	0.830187	1.1913	-0.242906	0.75075	1.19884	-0.0962141	0.815087	1.12763	-0.227568	0.687839	1.21178	-0.0411159	0.607464	1.19584	-0.0844253	0.0473972	0.474164	-0.23476	0.560754	1.04448	-0.322075	0.425053	0.469026	-0.290463	0.357238	0.515064	-0.240776	0.247094	0.504179	-0.311198	0.648045	0.822221	-0.205345	0.673691	0.690959	-0.227894	0.565476	0.594902	-0.221823	0.0646337	0.422782	-0.315478	0.730782	1.37007	-0.127777	0.748163	1.30019	-0.125325	0.660116	1.29836	-0.0632709
123	1.1	0.678666	1.50917	-0.381926	0.805774	1.41727	-0.37342	0.691642	1.45917	-0.56673	0.725389	1.0114	-0.485391	0.760674	0.093258	-0.39687	0.752397	1.23051	-0.675824	0.606617	1.28868	-0.759718	0.737336	1.18054	-0.715635	0.537098	1.30275	-0.761285	0.491121	1.24788	-0.70363	0.952086	0.0703339	-0.473814	0.558875	1.02665	-0.409485	0.888069	0.402569	-0.425249	0.8492	0.292846	-0.473378	0.869305	0.213073	-0.400393	0.719325	0.860616	-0.534844	0.808839	0.774377	-0.517504	0.788157	0.621981	-0.501368	0.977519	0.101506	-0.38859	0.64178	1.43007	-0.627596	0.566176	1.38604	-0.622106	0.598132	1.37039	-0.69111	0.74415	1.46463	-0.201985	0.721586	1.00748	-0.244842	0.168082	0.639168	-0.335652	0.824669	1.17441	-0.238084	0.741529	1.19031	-0.0939093	0.805652	1.11203	-0.221096	0.678024	1.20775	-0.0407619	0.598208	1.19404	-0.0855378	0.063116	0.493425	-0.232557	0.559226	1.03536	-0.320667	0.437066	0.46642	-0.287593	0.372141	0.516403	-0.238582	0.262175	0.512511	-0.309407	0.652999	0.814334	-0.205412	0.681862	0.683753	-0.227	0.576476	0.585749	-0.219987	0.0769881	0.441226	-0.313038	0.725552	1.36445	-0.128718	0.741002	1.29377	-0.126142	0.652753	1.29495	-0.0646339
124	1.10833	0.677836	1.50076	-0.383763	0.806003	1.4093	-0.373142	0.693416	1.45027	-0.568497	0.723388	1.00386	-0.48691	0.731711	0.0955258	-0.395528	0.76318	1.22654	-0.677844	0.616604	1.27846	-0.764528	0.751121	1.17585	-0.718229	0.546487	1.28948	-0.767192	0.50151	1.23214	-0.710883	0.923659	0.0627776	-0.471704	0.55631	1.01806	-0.408755	0.878404	0.39267	-0.424336	0.834021	0.284498	-0.471001	0.849041	0.204955	-0.397644	0.71597	0.85356	-0.534068	0.805606	0.767983	-0.515179	0.783933	0.615148	-0.502481	0.94998	0.0889747	-0.385066	0.645467	1.41866	-0.631418	0.569835	1.37339	-0.62839	0.604474	1.35799	-0.696017	0.741766	1.45812	-0.202881	0.721959	0.999977	-0.245551	0.191882	0.650689	-0.334211	0.818298	1.15654	-0.232425	0.731844	1.18165	-0.0911699	0.795356	1.09584	-0.213698	0.667807	1.20373	-0.0403087	0.588931	1.19209	-0.086786	0.0814243	0.509712	-0.230204	0.557705	1.02574	-0.319509	0.45058	0.462705	-0.283609	0.388642	0.51658	-0.236163	0.27915	0.51897	-0.307269	0.657732	0.806003	-0.205429	0.689876	0.676587	-0.225449	0.58799	0.576345	-0.218027	0.0923209	0.456778	-0.31028	0.719988	1.35856	-0.129543	0.733192	1.28718	-0.126923	0.644862	1.29146	-0.0661604
125	1.11667	0.676871	1.49213	-0.385754	0.806566	1.40106	-0.372698	0.695121	1.44149	-0.570088	0.720941	0.996036	-0.487915	0.700142	0.0976617	-0.393868	0.774174	1.2223	-0.678998	0.627364	1.2678	-0.768735	0.765431	1.17096	-0.72011	0.556715	1.27575	-0.772614	0.513314	1.21584	-0.717859	0.892243	0.0598128	-0.470133	0.552989	1.0096	-0.408134	0.867943	0.384426	-0.422972	0.817251	0.278786	-0.468846	0.825876	0.199558	-0.394485	0.712195	0.847269	-0.534379	0.802285	0.761517	-0.514316	0.781585	0.609563	-0.504581	0.91899	0.0812857	-0.382021	0.649151	1.40691	-0.634753	0.573688	1.36018	-0.634432	0.611145	1.34526	-0.700555	0.739256	1.45151	-0.203613	0.721874	0.991626	-0.246372	0.216968	0.659494	-0.332289	0.810987	1.138	-0.225892	0.721645	1.17297	-0.0880201	0.784102	1.07929	-0.205344	0.657232	1.19991	-0.0398066	0.57969	1.19005	-0.0882003	0.102001	0.522705	-0.227572	0.555476	1.01598	-0.318434	0.466004	0.458453	-0.279614	0.406836	0.515549	-0.233707	0.297941	0.5236	-0.30494	0.662182	0.797684	-0.205507	0.698007	0.669979	-0.223632	0.600632	0.566933	-0.215957	0.110214	0.469206	-0.307077	0.714121	1.3527	-0.130225	0.724722	1.28069	-0.127714	0.636541	1.28812	-0.0678645
126	1.125	0.676015	1.48396	-0.388112	0.807459	1.39278	-0.371973	0.696718	1.43303	-0.571646	0.718243	0.988543	-0.488604	0.667944	0.0993455	-0.392351	0.785446	1.21789	-0.679215	0.639023	1.25695	-0.771994	0.780263	1.16603	-0.721148	0.567958	1.2618	-0.77744	0.526524	1.19935	-0.724432	0.859587	0.0598366	-0.469153	0.549013	1.00195	-0.4072	0.855821	0.378438	-0.421577	0.799323	0.275916	-0.467612	0.801193	0.196906	-0.392019	0.707832	0.842148	-0.535664	0.798501	0.755341	-0.515134	0.780097	0.605208	-0.507418	0.886578	0.0777176	-0.38011	0.652454	1.3952	-0.637496	0.577719	1.34637	-0.639898	0.618074	1.33248	-0.704571	0.736508	1.44508	-0.204194	0.721014	0.98296	-0.247162	0.242834	0.665678	-0.329674	0.802671	1.11919	-0.218481	0.710815	1.16441	-0.0846183	0.771843	1.06273	-0.196096	0.646346	1.19648	-0.0393614	0.570506	1.18799	-0.0898669	0.124512	0.531926	-0.224646	0.552112	1.00679	-0.317261	0.483662	0.45426	-0.276693	0.426772	0.513395	-0.231405	0.31847	0.526421	-0.302585	0.666309	0.790002	-0.205679	0.706591	0.664485	-0.222024	0.614887	0.558063	-0.21388	0.130264	0.47828	-0.303554	0.708012	1.34718	-0.13082	0.715675	1.2746	-0.128642	0.627906	1.28518	-0.069824
